<svg width="36" height="164" viewBox="0 0 36 164" fill="none" xmlns="http://www.w3.org/2000/svg">
<rect width="164" height="36" transform="matrix(4.37114e-08 -1 -1 -4.37114e-08 36 164)" fill="#F6F6F6"/>
<path d="M24.0455 93.2953C24.4449 92.8959 24.4812 92.2709 24.1544 91.8304L24.0455 91.7043L14.3415 81.9998L24.0455 72.2952C24.4449 71.8958 24.4812 71.2709 24.1544 70.8304L24.0455 70.7043C23.6461 70.3049 23.0211 70.2686 22.5807 70.5953L22.4545 70.7043L11.9545 81.2043C11.5551 81.6037 11.5188 82.2287 11.8456 82.6691L11.9545 82.7952L22.4545 93.2953C22.8938 93.7346 23.6062 93.7346 24.0455 93.2953Z" fill="#1A3276"/>
</svg>
