<svg width="24" height="24" viewBox="0 0 24 24" fill="none" xmlns="https://www.w3.org/2000/svg">
<g id="Iconly/Light-Outline/Arrow - Down 2">
<path id="Union" fill-rule="evenodd" clip-rule="evenodd" d="M18.9838 4.19454C19.1772 4.00106 19.4909 4.00104 19.6844 4.19449C19.8779 4.38795 19.8779 4.70163 19.6844 4.89511L12.9409 11.6395L20.3825 19.082C20.576 19.2755 20.5759 19.5892 20.3825 19.7827C20.189 19.9761 19.8753 19.9761 19.6818 19.7826L12.2404 12.3402L4.79887 19.7826C4.60541 19.9761 4.29173 19.9761 4.09825 19.7827C3.90477 19.5892 3.90475 19.2755 4.0982 19.082L11.5398 11.6395L4.79627 4.89511C4.60281 4.70163 4.60283 4.38795 4.79631 4.19449C4.9898 4.00104 5.30347 4.00106 5.49693 4.19454L12.2404 10.9388L18.9838 4.19454Z" fill="#1A3276"/>
</g>
</svg>
