<svg width="268" height="36" fill="none" xmlns="https://www.w3.org/2000/svg"><g filter="url(#a)"><path fill-rule="evenodd" clip-rule="evenodd" d="M268 0H12v11.28L0 18l12 6.72V36h256V0z" fill="#000" fill-opacity=".65"/></g><path d="M29.092 14.146c0-.364.08-.69.238-.98.159-.299.383-.55.672-.756.29-.215.635-.378 1.036-.49a4.584 4.584 0 0 1 1.33-.182c.504 0 .957.06 1.358.182.41.121.76.29 1.05.504.29.205.509.457.658.756.159.299.238.62.238.966 0 .355-.08.681-.238.98a2.294 2.294 0 0 1-.672.77c-.29.205-.64.369-1.05.49a4.94 4.94 0 0 1-1.33.168c-.495 0-.943-.056-1.344-.168a3.313 3.313 0 0 1-1.036-.476 2.294 2.294 0 0 1-.672-.77 2.085 2.085 0 0 1-.238-.994zm5.768 4.788h2.366v-7.42h1.512v9.534h-1.512v-.952H34.86v-1.162zm-3.584 4.746c-.42 0-.63-.173-.63-.518v-2.786h1.568v2.058h6.79v1.246h-7.728zm.252-3.724v-1.568h-3.01v-1.204h4.802c.523 0 1.045-.023 1.568-.07.523-.047.99-.135 1.4-.266l.294.994a7.606 7.606 0 0 1-1.666.42c-.635.084-1.26.126-1.876.126v1.568h-1.512zm2.632-5.81c0-.373-.154-.672-.462-.896-.299-.233-.737-.35-1.316-.35-.579 0-1.022.117-1.33.35a1.054 1.054 0 0 0-.462.896c0 .383.154.686.462.91.308.215.751.322 1.33.322.579 0 1.017-.107 1.316-.322.308-.224.462-.527.462-.91zm12.493 4.788c0 .765-.266 1.377-.798 1.834-.532.457-1.293.686-2.282.686-.98 0-1.736-.229-2.268-.686-.532-.467-.798-1.078-.798-1.834 0-.765.27-1.377.812-1.834.541-.457 1.293-.686 2.254-.686.99 0 1.75.229 2.282.686.532.457.798 1.069.798 1.834zm1.526 4.886V11.5h1.512v4.704h1.722v1.246H49.69v6.37h-1.512zm-3.01-4.886c0-.392-.145-.71-.434-.952-.29-.243-.677-.364-1.162-.364-.495 0-.882.121-1.162.364-.27.243-.406.56-.406.952 0 .42.14.747.42.98.29.224.672.336 1.148.336.485 0 .873-.117 1.162-.35.29-.233.434-.555.434-.966zm-5.124-4.564h7.07v1.204h-7.07V14.37zm1.554-2.268h4.004v1.204h-4.004v-1.204zm11.849-.336h1.498v3.15h6.202v1.218h-7.084c-.41 0-.616-.173-.616-.518v-3.85zm-1.694 5.866h11.018v1.218H51.754v-1.218zm2.128 5.992c-.42 0-.63-.173-.63-.518v-3.304h1.512v2.576h6.622v1.246h-7.504zm20.552.182V11.514h1.512v12.292h-1.512zm-8.12-3.724c.747-.308 1.4-.658 1.96-1.05a6.835 6.835 0 0 0 1.414-1.302 5.16 5.16 0 0 0 .854-1.498 4.55 4.55 0 0 0 .294-1.61v-.392h-4.144v-1.246h5.712v1.12c0 .868-.126 1.666-.378 2.394a6.886 6.886 0 0 1-1.078 1.974 7.656 7.656 0 0 1-1.694 1.582 12.94 12.94 0 0 1-2.226 1.218l-.714-1.19zm13.053-8.344h1.512v2.912h6.188v1.204h-7.084c-.41 0-.616-.168-.616-.504v-3.612zm-1.68 5.334h11.018v1.218H77.687v-1.218zm1.442 4.62c0-.747.336-1.32 1.008-1.722.681-.41 1.699-.616 3.052-.616 1.354 0 2.37.205 3.052.616.681.401 1.022.975 1.022 1.722 0 .728-.34 1.297-1.022 1.708-.681.41-1.698.616-3.052.616-1.353 0-2.37-.205-3.052-.616-.672-.41-1.008-.98-1.008-1.708zm1.498 0c0 .355.206.63.616.826.41.205 1.064.308 1.96.308.877 0 1.522-.103 1.932-.308.42-.196.63-.471.63-.826 0-.373-.21-.658-.63-.854-.41-.196-1.055-.294-1.932-.294-.896 0-1.55.098-1.96.294-.41.196-.616.48-.616.854zm10.17-7.924c0-.663.33-1.2.993-1.61.672-.41 1.68-.616 3.024-.616 1.354 0 2.362.21 3.024.63.672.41 1.008.943 1.008 1.596 0 .69-.331 1.237-.994 1.638-.663.401-1.675.602-3.038.602-1.344 0-2.352-.2-3.024-.602-.663-.401-.994-.947-.994-1.638zm1.54 0c0 .345.2.62.601.826.401.196 1.031.294 1.89.294.85 0 1.475-.098 1.876-.294.41-.205.616-.48.616-.826 0-.327-.205-.593-.616-.798-.401-.215-1.026-.322-1.876-.322-.859 0-1.489.107-1.89.322-.401.205-.602.471-.602.798zm-3.025 3.024h11.018v1.106H89.312v-1.106zm1.526 4.004h6.482V19.9h-6.482v-1.078h7.952v3.024h-6.482v.91h6.902v1.064h-7.756c-.41 0-.616-.168-.616-.504v-2.52zm15.947-3.234c-.103-.177-.187-.425-.252-.742a6.129 6.129 0 0 1-.084-1.036v-1.512h1.512v2.646c.009.261.023.476.042.644h2.268c.018-.168.032-.383.042-.644.009-.27.014-.546.014-.826v-1.82h1.512v1.498c0 .373-.033.719-.098 1.036-.066.317-.15.57-.252.756h2.016v1.246h-3.612v2.31h4.746v1.218h-11.018v-1.218h4.76v-2.31h-3.612v-1.246h2.016zm-1.848-4.088v-1.232h8.386v1.232h-8.386zm12.618 10.346c-.41 0-.616-.173-.616-.518v-3.626h7.868v4.144h-7.252zm3.836-6.874c0 .663-.256 1.176-.77 1.54-.504.364-1.222.546-2.156.546-.924 0-1.642-.182-2.156-.546-.504-.364-.756-.877-.756-1.54s.252-1.176.756-1.54c.514-.364 1.232-.546 2.156-.546.934 0 1.652.182 2.156.546.514.364.77.877.77 1.54zm1.904 2.184V11.5h1.512v3.36h1.722v1.246h-1.722v3.024h-1.512zm-4.844 3.5h4.844v-1.75h-4.844v1.75zm-3.402-9.478h6.818V14.3h-6.818v-1.148zm4.858 3.794a.804.804 0 0 0-.364-.7c-.242-.177-.602-.266-1.078-.266-.466 0-.821.089-1.064.266a.806.806 0 0 0-.364.7c0 .299.117.532.35.7.243.168.602.252 1.078.252.476 0 .836-.084 1.078-.252a.804.804 0 0 0 .364-.7zm-3.388-5.642h3.934v1.148h-3.934v-1.148zm16.875 7.63c0 .765-.266 1.377-.798 1.834-.532.457-1.292.686-2.282.686-.98 0-1.736-.229-2.268-.686-.532-.467-.798-1.078-.798-1.834 0-.765.271-1.377.812-1.834.542-.457 1.293-.686 2.254-.686.99 0 1.75.229 2.282.686.532.457.798 1.069.798 1.834zm1.526 4.886V11.5h1.512v4.704h1.722v1.246h-1.722v6.37h-1.512zm-3.01-4.886c0-.392-.144-.71-.434-.952-.289-.243-.676-.364-1.162-.364-.494 0-.882.121-1.162.364-.27.243-.406.56-.406.952 0 .42.14.747.42.98.29.224.672.336 1.148.336.486 0 .873-.117 1.162-.35.29-.233.434-.555.434-.966zm-5.124-4.564h7.07v1.204h-7.07V14.37zm1.554-2.268h4.004v1.204h-4.004v-1.204zm11.849-.336h1.498v3.15h6.202v1.218h-7.084c-.41 0-.616-.173-.616-.518v-3.85zm-1.694 5.866h11.018v1.218h-11.018v-1.218zm2.128 5.992c-.42 0-.63-.173-.63-.518v-3.304h1.512v2.576h6.622v1.246h-7.504zm15.289-7.448v1.638h6.37v1.19h-7.28c-.392 0-.588-.173-.588-.518v-6.314h7.812v1.232h-6.314v1.582h5.95v1.19h-5.95zm-3.108 4.97h11.018v1.218h-11.018v-1.218zm12.759-3.066c-.402 0-.602-.168-.602-.504V14.51h4.55v-1.26h-4.55v-1.204h6.076v3.612h-4.564v1.232h2.296c.662 0 1.241-.023 1.736-.07a6.214 6.214 0 0 0 1.358-.294l.266.966c-.252.112-.532.21-.84.294a9.091 9.091 0 0 1-.952.182 18.919 18.919 0 0 1-2.058.112h-2.716zm7.336.546v-7.112h1.498v7.112h-1.498zm-4.956 3.99h4.956V20.39h-4.956v2.226zm-.896 1.176c-.411 0-.616-.168-.616-.504v-4.102h7.966v4.606h-7.35zm10.491-10.024c0-.663.331-1.2.994-1.61.672-.41 1.68-.616 3.024-.616 1.353 0 2.361.21 3.024.63.672.41 1.008.943 1.008 1.596 0 .69-.332 1.237-.994 1.638-.663.401-1.676.602-3.038.602-1.344 0-2.352-.2-3.024-.602-.663-.401-.994-.947-.994-1.638zm1.54 0c0 .345.2.62.602.826.401.196 1.031.294 1.89.294.849 0 1.474-.098 1.876-.294.41-.205.616-.48.616-.826 0-.327-.206-.593-.616-.798-.402-.215-1.027-.322-1.876-.322-.859 0-1.489.107-1.89.322-.402.205-.602.471-.602.798zm-3.024 3.024h11.018v1.106h-11.018v-1.106zm1.526 4.004h6.482V19.9h-6.482v-1.078h7.952v3.024h-6.482v.91h6.902v1.064h-7.756c-.411 0-.616-.168-.616-.504v-2.52zm14.462-1.624h7.966v1.218h-3.192c.037.345.173.653.406.924.243.261.537.49.882.686.345.196.723.355 1.134.476.42.121.835.205 1.246.252l-.35 1.204a8.965 8.965 0 0 1-1.218-.266 8.027 8.027 0 0 1-1.176-.448 6.324 6.324 0 0 1-1.022-.574 3.23 3.23 0 0 1-.714-.644c-.168.215-.392.42-.672.616-.28.205-.597.392-.952.56a8.628 8.628 0 0 1-1.176.448c-.42.13-.859.229-1.316.294l-.392-1.19c.485-.075.947-.177 1.386-.308a5.283 5.283 0 0 0 1.162-.462c.336-.196.607-.42.812-.672.215-.261.345-.56.392-.896h-3.206v-1.218zm-1.554-5.796h6.58v1.162h-2.52c.028.355.126.677.294.966.177.28.401.532.672.756.271.224.579.41.924.56.345.15.705.261 1.078.336l-.224.588c-.075.187-.149.378-.224.574a6.889 6.889 0 0 1-2.03-.812 6.137 6.137 0 0 1-.742-.546 2.734 2.734 0 0 1-.476-.546c-.112.205-.28.415-.504.63-.224.215-.481.42-.77.616-.289.187-.607.36-.952.518-.336.15-.677.266-1.022.35a4.37 4.37 0 0 1-.098-.224 51.864 51.864 0 0 0-.154-.364c-.056-.14-.107-.266-.154-.378a3.386 3.386 0 0 0-.098-.238 5.291 5.291 0 0 0 1.106-.364c.355-.168.667-.369.938-.602.271-.243.485-.513.644-.812a2.33 2.33 0 0 0 .28-1.008h-2.548v-1.162zm7.924 5.194v-7.056h1.512v3.178h1.722v1.232h-1.722v2.646h-1.512zm-6.636-7.196h4.032v1.176h-4.032v-1.176zm16.777 5.418c0 .756-.084 1.395-.252 1.918-.159.513-.383.933-.672 1.26-.289.327-.63.57-1.022.728a3.51 3.51 0 0 1-1.26.224c-.448 0-.863-.07-1.246-.21a2.65 2.65 0 0 1-1.022-.728c-.289-.327-.513-.751-.672-1.274-.159-.523-.238-1.162-.238-1.918 0-.737.079-1.367.238-1.89.159-.532.383-.966.672-1.302a2.667 2.667 0 0 1 1.008-.742 3.325 3.325 0 0 1 1.26-.238c.448 0 .868.08 1.26.238.392.159.733.406 1.022.742.289.336.513.765.672 1.288.168.523.252 1.157.252 1.904zm-1.484-.028c0-.56-.051-1.022-.154-1.386-.103-.373-.233-.677-.392-.91-.159-.243-.341-.406-.546-.49a1.478 1.478 0 0 0-.616-.14 1.3 1.3 0 0 0-.63.168 1.542 1.542 0 0 0-.532.49c-.177.233-.317.537-.42.91-.093.364-.135.817-.126 1.358 0 .56.051 1.031.154 1.414.103.383.233.686.392.91.149.215.327.369.532.462a1.506 1.506 0 0 0 1.232.014c.205-.084.392-.247.56-.49.159-.215.289-.513.392-.896.103-.383.154-.854.154-1.414zm2.968 7.056V11.5h1.512v4.648h1.722v1.232h-1.722v6.44h-1.512zm5.787-5.194c-.401 0-.602-.168-.602-.504v-5.866h7.826v1.232h-6.3v3.948h6.37v1.19h-7.294zm-2.212 2.45h11.032v1.246h-11.032v-1.246zm15.979-1.61c1.045 0 1.955-.121 2.73-.364l.294 1.008c-.252.121-.537.22-.854.294-.308.075-.63.135-.966.182-.336.037-.682.065-1.036.084-.346.019-.677.028-.994.028h-2.198c-.411 0-.616-.163-.616-.49v-4.06h4.228v-2.072h-4.228v-1.218h5.74v4.48h-4.228v2.128h2.128zm2.534-5.138h1.68v-2.814h1.498v12.292h-1.498v-5.362h-1.68v-1.218h1.68v-1.68h-1.68v-1.218zm4.737 6.762h2.898v-2.702a3.102 3.102 0 0 1-1.204-1.148c-.271-.485-.406-1.064-.406-1.736 0-.541.102-1.027.308-1.456.205-.439.49-.807.854-1.106a3.841 3.841 0 0 1 1.33-.7 5.465 5.465 0 0 1 1.708-.252c.634 0 1.208.084 1.722.252.522.168.966.406 1.33.714.373.299.658.667.854 1.106.205.43.308.91.308 1.442 0 .644-.14 1.209-.42 1.694a3.192 3.192 0 0 1-1.148 1.162v2.73h2.884v1.246h-11.018V21.09zm2.842-5.586c0 .7.233 1.25.7 1.652.466.392 1.12.588 1.96.588.83 0 1.484-.196 1.96-.588.476-.401.714-.952.714-1.652a2.137 2.137 0 0 0-.714-1.61 2.478 2.478 0 0 0-.84-.476 3.447 3.447 0 0 0-1.12-.168c-.84 0-1.494.21-1.96.63-.467.42-.7.961-.7 1.624zm2.73 3.486c-.411 0-.798-.028-1.162-.084v2.184h2.212v-2.184a6.38 6.38 0 0 1-1.05.084zm6.431 1.848h1.946v1.932h-1.946v-1.932z" fill="#fff"/><defs><filter id="a" x="-8" y="-8" width="284" height="52" filterUnits="userSpaceOnUse" color-interpolation-filters="sRGB"><feFlood flood-opacity="0" result="BackgroundImageFix"/><feGaussianBlur in="BackgroundImageFix" stdDeviation="4"/><feComposite in2="SourceAlpha" operator="in" result="effect1_backgroundBlur_100_11356"/><feBlend in="SourceGraphic" in2="effect1_backgroundBlur_100_11356" result="shape"/></filter></defs></svg>