<svg width="268" height="36" viewBox="0 0 268 36" fill="none" xmlns="http://www.w3.org/2000/svg">
<g filter="url(#filter0_b_100_11356)">
<path fill-rule="evenodd" clip-rule="evenodd" d="M268 0H12V11.2801L0 18.0001L12 24.7201V36H268V0Z" fill="black" fill-opacity="0.65"/>
</g>
<path d="M29.092 14.146C29.092 13.782 29.1713 13.4553 29.33 13.166C29.4887 12.8673 29.7127 12.6153 30.002 12.41C30.2913 12.1953 30.6367 12.032 31.038 11.92C31.4393 11.7987 31.8827 11.738 32.368 11.738C32.872 11.738 33.3247 11.7987 33.726 11.92C34.1367 12.0413 34.4867 12.2093 34.776 12.424C35.0653 12.6293 35.2847 12.8813 35.434 13.18C35.5927 13.4787 35.672 13.8007 35.672 14.146C35.672 14.5007 35.5927 14.8273 35.434 15.126C35.2753 15.4247 35.0513 15.6813 34.762 15.896C34.4727 16.1013 34.1227 16.2647 33.712 16.386C33.3107 16.498 32.8673 16.554 32.382 16.554C31.8873 16.554 31.4393 16.498 31.038 16.386C30.6367 16.274 30.2913 16.1153 30.002 15.91C29.7127 15.6953 29.4887 15.4387 29.33 15.14C29.1713 14.8413 29.092 14.51 29.092 14.146ZM34.86 18.934H37.226V11.514H38.738V21.048H37.226V20.096H34.86V18.934ZM31.276 23.68C30.856 23.68 30.646 23.5073 30.646 23.162V20.376H32.214V22.434H39.004V23.68H31.276ZM31.528 19.956V18.388H28.518V17.184H33.32C33.8427 17.184 34.3653 17.1607 34.888 17.114C35.4107 17.0673 35.8773 16.9787 36.288 16.848L36.582 17.842C36.106 18.0287 35.5507 18.1687 34.916 18.262C34.2813 18.346 33.656 18.388 33.04 18.388V19.956H31.528ZM34.16 14.146C34.16 13.7727 34.006 13.474 33.698 13.25C33.3993 13.0167 32.9607 12.9 32.382 12.9C31.8033 12.9 31.36 13.0167 31.052 13.25C30.744 13.474 30.59 13.7727 30.59 14.146C30.59 14.5287 30.744 14.832 31.052 15.056C31.36 15.2707 31.8033 15.378 32.382 15.378C32.9607 15.378 33.3993 15.2707 33.698 15.056C34.006 14.832 34.16 14.5287 34.16 14.146ZM46.6529 18.934C46.6529 19.6993 46.3869 20.3107 45.8549 20.768C45.3229 21.2253 44.5623 21.454 43.5729 21.454C42.5929 21.454 41.8369 21.2253 41.3049 20.768C40.7729 20.3013 40.5069 19.69 40.5069 18.934C40.5069 18.1687 40.7776 17.5573 41.3189 17.1C41.8603 16.6427 42.6116 16.414 43.5729 16.414C44.5623 16.414 45.3229 16.6427 45.8549 17.1C46.3869 17.5573 46.6529 18.1687 46.6529 18.934ZM48.1789 23.82V11.5H49.6909V16.204H51.4129V17.45H49.6909V23.82H48.1789ZM45.1689 18.934C45.1689 18.542 45.0243 18.2247 44.7349 17.982C44.4456 17.7393 44.0583 17.618 43.5729 17.618C43.0783 17.618 42.6909 17.7393 42.4109 17.982C42.1403 18.2247 42.0049 18.542 42.0049 18.934C42.0049 19.354 42.1449 19.6807 42.4249 19.914C42.7143 20.138 43.0969 20.25 43.5729 20.25C44.0583 20.25 44.4456 20.1333 44.7349 19.9C45.0243 19.6667 45.1689 19.3447 45.1689 18.934ZM40.0449 14.37H47.1149V15.574H40.0449V14.37ZM41.5989 12.102H45.6029V13.306H41.5989V12.102ZM53.4478 11.766H54.9458V14.916H61.1478V16.134H54.0638C53.6532 16.134 53.4478 15.9613 53.4478 15.616V11.766ZM51.7538 17.632H62.7718V18.85H51.7538V17.632ZM53.8818 23.624C53.4618 23.624 53.2518 23.4513 53.2518 23.106V19.802H54.7638V22.378H61.3858V23.624H53.8818ZM74.4343 23.806V11.514H75.9463V23.806H74.4343ZM66.3143 20.082C67.0609 19.774 67.7143 19.424 68.2743 19.032C68.8436 18.6307 69.3149 18.1967 69.6883 17.73C70.0709 17.254 70.3556 16.7547 70.5423 16.232C70.7383 15.7093 70.8363 15.1727 70.8363 14.622V14.23H66.6923V12.984H72.4043V14.104C72.4043 14.972 72.2783 15.77 72.0263 16.498C71.7743 17.2167 71.4149 17.8747 70.9483 18.472C70.4909 19.06 69.9263 19.5873 69.2543 20.054C68.5916 20.5113 67.8496 20.9173 67.0283 21.272L66.3143 20.082ZM79.3672 11.738H80.8792V14.65H87.0672V15.854H79.9832C79.5725 15.854 79.3672 15.686 79.3672 15.35V11.738ZM77.6872 17.072H88.7052V18.29H77.6872V17.072ZM79.1292 21.692C79.1292 20.9453 79.4652 20.3713 80.1372 19.97C80.8185 19.5593 81.8359 19.354 83.1892 19.354C84.5425 19.354 85.5599 19.5593 86.2412 19.97C86.9225 20.3713 87.2632 20.9453 87.2632 21.692C87.2632 22.42 86.9225 22.9893 86.2412 23.4C85.5599 23.8107 84.5425 24.016 83.1892 24.016C81.8359 24.016 80.8185 23.8107 80.1372 23.4C79.4652 22.9893 79.1292 22.42 79.1292 21.692ZM80.6272 21.692C80.6272 22.0467 80.8325 22.322 81.2432 22.518C81.6539 22.7233 82.3072 22.826 83.2032 22.826C84.0805 22.826 84.7245 22.7233 85.1352 22.518C85.5552 22.322 85.7652 22.0467 85.7652 21.692C85.7652 21.3187 85.5552 21.034 85.1352 20.838C84.7245 20.642 84.0805 20.544 83.2032 20.544C82.3072 20.544 81.6539 20.642 81.2432 20.838C80.8325 21.034 80.6272 21.3187 80.6272 21.692ZM90.7961 13.768C90.7961 13.1053 91.1275 12.5687 91.7901 12.158C92.4621 11.7473 93.4701 11.542 94.8141 11.542C96.1675 11.542 97.1755 11.752 97.8381 12.172C98.5101 12.5827 98.8461 13.1147 98.8461 13.768C98.8461 14.4587 98.5148 15.0047 97.8521 15.406C97.1895 15.8073 96.1768 16.008 94.8141 16.008C93.4701 16.008 92.4621 15.8073 91.7901 15.406C91.1275 15.0047 90.7961 14.4587 90.7961 13.768ZM92.3361 13.768C92.3361 14.1133 92.5368 14.3887 92.9381 14.594C93.3395 14.79 93.9695 14.888 94.8281 14.888C95.6775 14.888 96.3028 14.79 96.7041 14.594C97.1148 14.3887 97.3201 14.1133 97.3201 13.768C97.3201 13.4413 97.1148 13.1753 96.7041 12.97C96.3028 12.7553 95.6775 12.648 94.8281 12.648C93.9695 12.648 93.3395 12.7553 92.9381 12.97C92.5368 13.1753 92.3361 13.4413 92.3361 13.768ZM89.3121 16.792H100.33V17.898H89.3121V16.792ZM90.8381 20.796H97.3201V19.9H90.8381V18.822H98.7901V21.846H92.3081V22.756H99.2101V23.82H91.4541C91.0435 23.82 90.8381 23.652 90.8381 23.316V20.796ZM106.785 17.562C106.682 17.3847 106.598 17.1373 106.533 16.82C106.477 16.4933 106.449 16.148 106.449 15.784V14.272H107.961V16.092C107.961 16.372 107.961 16.6473 107.961 16.918C107.97 17.1793 107.984 17.394 108.003 17.562H110.271C110.289 17.394 110.303 17.1793 110.313 16.918C110.322 16.6473 110.327 16.372 110.327 16.092V14.272H111.839V15.77C111.839 16.1433 111.806 16.4887 111.741 16.806C111.675 17.1233 111.591 17.3753 111.489 17.562H113.505V18.808H109.893V21.118H114.639V22.336H103.621V21.118H108.381V18.808H104.769V17.562H106.785ZM104.937 13.474V12.242H113.323V13.474H104.937ZM117.555 23.82C117.145 23.82 116.939 23.6473 116.939 23.302V19.676H124.807V23.82H117.555ZM121.391 16.946C121.391 17.6087 121.135 18.122 120.621 18.486C120.117 18.85 119.399 19.032 118.465 19.032C117.541 19.032 116.823 18.85 116.309 18.486C115.805 18.122 115.553 17.6087 115.553 16.946C115.553 16.2833 115.805 15.77 116.309 15.406C116.823 15.042 117.541 14.86 118.465 14.86C119.399 14.86 120.117 15.042 120.621 15.406C121.135 15.77 121.391 16.2833 121.391 16.946ZM123.295 19.13V11.5H124.807V14.86H126.529V16.106H124.807V19.13H123.295ZM118.451 22.63H123.295V20.88H118.451V22.63ZM115.049 13.152H121.867V14.3H115.049V13.152ZM119.907 16.946C119.907 16.6473 119.786 16.414 119.543 16.246C119.301 16.0687 118.941 15.98 118.465 15.98C117.999 15.98 117.644 16.0687 117.401 16.246C117.159 16.414 117.037 16.6473 117.037 16.946C117.037 17.2447 117.154 17.478 117.387 17.646C117.63 17.814 117.989 17.898 118.465 17.898C118.941 17.898 119.301 17.814 119.543 17.646C119.786 17.478 119.907 17.2447 119.907 16.946ZM116.519 11.304H120.453V12.452H116.519V11.304ZM133.394 18.934C133.394 19.6993 133.128 20.3107 132.596 20.768C132.064 21.2253 131.304 21.454 130.314 21.454C129.334 21.454 128.578 21.2253 128.046 20.768C127.514 20.3013 127.248 19.69 127.248 18.934C127.248 18.1687 127.519 17.5573 128.06 17.1C128.602 16.6427 129.353 16.414 130.314 16.414C131.304 16.414 132.064 16.6427 132.596 17.1C133.128 17.5573 133.394 18.1687 133.394 18.934ZM134.92 23.82V11.5H136.432V16.204H138.154V17.45H136.432V23.82H134.92ZM131.91 18.934C131.91 18.542 131.766 18.2247 131.476 17.982C131.187 17.7393 130.8 17.618 130.314 17.618C129.82 17.618 129.432 17.7393 129.152 17.982C128.882 18.2247 128.746 18.542 128.746 18.934C128.746 19.354 128.886 19.6807 129.166 19.914C129.456 20.138 129.838 20.25 130.314 20.25C130.8 20.25 131.187 20.1333 131.476 19.9C131.766 19.6667 131.91 19.3447 131.91 18.934ZM126.786 14.37H133.856V15.574H126.786V14.37ZM128.34 12.102H132.344V13.306H128.34V12.102ZM140.189 11.766H141.687V14.916H147.889V16.134H140.805C140.395 16.134 140.189 15.9613 140.189 15.616V11.766ZM138.495 17.632H149.513V18.85H138.495V17.632ZM140.623 23.624C140.203 23.624 139.993 23.4513 139.993 23.106V19.802H141.505V22.378H148.127V23.624H140.623ZM155.912 16.176V17.814H162.282V19.004H155.002C154.61 19.004 154.414 18.8313 154.414 18.486V12.172H162.226V13.404H155.912V14.986H161.862V16.176H155.912ZM152.804 21.146H163.822V22.364H152.804V21.146ZM165.563 18.08C165.161 18.08 164.961 17.912 164.961 17.576V14.51H169.511V13.25H164.961V12.046H171.037V15.658H166.473V16.89H168.769C169.431 16.89 170.01 16.8667 170.505 16.82C171.009 16.764 171.461 16.666 171.863 16.526L172.129 17.492C171.877 17.604 171.597 17.702 171.289 17.786C170.99 17.8607 170.673 17.9213 170.337 17.968C170.001 18.0053 169.655 18.0333 169.301 18.052C168.955 18.0707 168.615 18.08 168.279 18.08H165.563ZM172.899 18.626V11.514H174.397V18.626H172.899ZM167.943 22.616H172.899V20.39H167.943V22.616ZM167.047 23.792C166.636 23.792 166.431 23.624 166.431 23.288V19.186H174.397V23.792H167.047ZM177.538 13.768C177.538 13.1053 177.869 12.5687 178.532 12.158C179.204 11.7473 180.212 11.542 181.556 11.542C182.909 11.542 183.917 11.752 184.58 12.172C185.252 12.5827 185.588 13.1147 185.588 13.768C185.588 14.4587 185.256 15.0047 184.594 15.406C183.931 15.8073 182.918 16.008 181.556 16.008C180.212 16.008 179.204 15.8073 178.532 15.406C177.869 15.0047 177.538 14.4587 177.538 13.768ZM179.078 13.768C179.078 14.1133 179.278 14.3887 179.68 14.594C180.081 14.79 180.711 14.888 181.57 14.888C182.419 14.888 183.044 14.79 183.446 14.594C183.856 14.3887 184.062 14.1133 184.062 13.768C184.062 13.4413 183.856 13.1753 183.446 12.97C183.044 12.7553 182.419 12.648 181.57 12.648C180.711 12.648 180.081 12.7553 179.68 12.97C179.278 13.1753 179.078 13.4413 179.078 13.768ZM176.054 16.792H187.072V17.898H176.054V16.792ZM177.58 20.796H184.062V19.9H177.58V18.822H185.532V21.846H179.05V22.756H185.952V23.82H178.196C177.785 23.82 177.58 23.652 177.58 23.316V20.796ZM192.042 19.172H200.008V20.39H196.816C196.853 20.7353 196.989 21.0433 197.222 21.314C197.465 21.5753 197.759 21.804 198.104 22C198.449 22.196 198.827 22.3547 199.238 22.476C199.658 22.5973 200.073 22.6813 200.484 22.728L200.134 23.932C199.742 23.876 199.336 23.7873 198.916 23.666C198.505 23.5447 198.113 23.3953 197.74 23.218C197.367 23.05 197.026 22.8587 196.718 22.644C196.419 22.4387 196.181 22.224 196.004 22C195.836 22.2147 195.612 22.42 195.332 22.616C195.052 22.8213 194.735 23.008 194.38 23.176C194.025 23.344 193.633 23.4933 193.204 23.624C192.784 23.7547 192.345 23.8527 191.888 23.918L191.496 22.728C191.981 22.6533 192.443 22.5507 192.882 22.42C193.321 22.2987 193.708 22.1447 194.044 21.958C194.38 21.762 194.651 21.538 194.856 21.286C195.071 21.0247 195.201 20.726 195.248 20.39H192.042V19.172ZM190.488 13.376H197.068V14.538H194.548C194.576 14.8927 194.674 15.2147 194.842 15.504C195.019 15.784 195.243 16.036 195.514 16.26C195.785 16.484 196.093 16.6707 196.438 16.82C196.783 16.9693 197.143 17.0813 197.516 17.156C197.441 17.352 197.367 17.548 197.292 17.744C197.217 17.9307 197.143 18.122 197.068 18.318C196.695 18.234 196.335 18.122 195.99 17.982C195.645 17.842 195.327 17.6833 195.038 17.506C194.758 17.3287 194.511 17.1467 194.296 16.96C194.091 16.7733 193.932 16.5913 193.82 16.414C193.708 16.6193 193.54 16.8293 193.316 17.044C193.092 17.2587 192.835 17.464 192.546 17.66C192.257 17.8467 191.939 18.0193 191.594 18.178C191.258 18.3273 190.917 18.444 190.572 18.528C190.553 18.4907 190.521 18.416 190.474 18.304C190.427 18.192 190.376 18.0707 190.32 17.94C190.264 17.8 190.213 17.674 190.166 17.562C190.119 17.4407 190.087 17.3613 190.068 17.324C190.46 17.24 190.829 17.1187 191.174 16.96C191.529 16.792 191.841 16.5913 192.112 16.358C192.383 16.1153 192.597 15.8447 192.756 15.546C192.924 15.238 193.017 14.902 193.036 14.538H190.488V13.376ZM198.412 18.57V11.514H199.924V14.692H201.646V15.924H199.924V18.57H198.412ZM191.776 11.374H195.808V12.55H191.776V11.374ZM208.553 16.792C208.553 17.548 208.469 18.1873 208.301 18.71C208.142 19.2233 207.918 19.6433 207.629 19.97C207.34 20.2967 206.999 20.5393 206.607 20.698C206.215 20.8473 205.795 20.922 205.347 20.922C204.899 20.922 204.484 20.852 204.101 20.712C203.718 20.5627 203.378 20.32 203.079 19.984C202.79 19.6573 202.566 19.2327 202.407 18.71C202.248 18.1873 202.169 17.548 202.169 16.792C202.169 16.0547 202.248 15.4247 202.407 14.902C202.566 14.37 202.79 13.936 203.079 13.6C203.368 13.264 203.704 13.0167 204.087 12.858C204.479 12.6993 204.899 12.62 205.347 12.62C205.795 12.62 206.215 12.6993 206.607 12.858C206.999 13.0167 207.34 13.264 207.629 13.6C207.918 13.936 208.142 14.3653 208.301 14.888C208.469 15.4107 208.553 16.0453 208.553 16.792ZM207.069 16.764C207.069 16.204 207.018 15.742 206.915 15.378C206.812 15.0047 206.682 14.7013 206.523 14.468C206.364 14.2253 206.182 14.062 205.977 13.978C205.772 13.8847 205.566 13.838 205.361 13.838C205.146 13.838 204.936 13.894 204.731 14.006C204.535 14.1087 204.358 14.272 204.199 14.496C204.022 14.7293 203.882 15.0327 203.779 15.406C203.686 15.77 203.644 16.2227 203.653 16.764C203.653 17.324 203.704 17.7953 203.807 18.178C203.91 18.5607 204.04 18.864 204.199 19.088C204.348 19.3027 204.526 19.4567 204.731 19.55C204.936 19.6433 205.146 19.69 205.361 19.69C205.566 19.69 205.767 19.648 205.963 19.564C206.168 19.48 206.355 19.3167 206.523 19.074C206.682 18.8593 206.812 18.5607 206.915 18.178C207.018 17.7953 207.069 17.324 207.069 16.764ZM210.037 23.82V11.5H211.549V16.148H213.271V17.38H211.549V23.82H210.037ZM215.824 18.626C215.423 18.626 215.222 18.458 215.222 18.122V12.256H223.048V13.488H216.748V17.436H223.118V18.626H215.824ZM213.612 21.076H224.644V22.322H213.612V21.076ZM229.591 19.466C230.636 19.466 231.546 19.3447 232.321 19.102L232.615 20.11C232.363 20.2313 232.078 20.3293 231.761 20.404C231.453 20.4787 231.131 20.5393 230.795 20.586C230.459 20.6233 230.113 20.6513 229.759 20.67C229.413 20.6887 229.082 20.698 228.765 20.698H226.567C226.156 20.698 225.951 20.5347 225.951 20.208V16.148H230.179V14.076H225.951V12.858H231.691V17.338H227.463V19.466H229.591ZM232.125 14.328H233.805V11.514H235.303V23.806H233.805V18.444H232.125V17.226H233.805V15.546H232.125V14.328ZM236.862 21.09H239.76V18.388C239.237 18.0987 238.836 17.716 238.556 17.24C238.285 16.7547 238.15 16.176 238.15 15.504C238.15 14.9627 238.252 14.4773 238.458 14.048C238.663 13.6093 238.948 13.2407 239.312 12.942C239.685 12.634 240.128 12.4007 240.642 12.242C241.155 12.074 241.724 11.99 242.35 11.99C242.984 11.99 243.558 12.074 244.072 12.242C244.594 12.41 245.038 12.648 245.402 12.956C245.775 13.2547 246.06 13.6233 246.256 14.062C246.461 14.4913 246.564 14.972 246.564 15.504C246.564 16.148 246.424 16.7127 246.144 17.198C245.873 17.674 245.49 18.0613 244.996 18.36V21.09H247.88V22.336H236.862V21.09ZM239.704 15.504C239.704 16.204 239.937 16.7547 240.404 17.156C240.87 17.548 241.524 17.744 242.364 17.744C243.194 17.744 243.848 17.548 244.324 17.156C244.8 16.7547 245.038 16.204 245.038 15.504C245.038 15.1867 244.977 14.8927 244.856 14.622C244.734 14.342 244.557 14.0993 244.324 13.894C244.09 13.6887 243.81 13.53 243.484 13.418C243.157 13.306 242.784 13.25 242.364 13.25C241.524 13.25 240.87 13.46 240.404 13.88C239.937 14.3 239.704 14.8413 239.704 15.504ZM242.434 18.99C242.023 18.99 241.636 18.962 241.272 18.906V21.09H243.484V18.906C243.148 18.962 242.798 18.99 242.434 18.99ZM248.865 20.838H250.811V22.77H248.865V20.838Z" fill="white"/>
<defs>
<filter id="filter0_b_100_11356" x="-8" y="-8" width="284" height="52" filterUnits="userSpaceOnUse" color-interpolation-filters="sRGB">
<feFlood flood-opacity="0" result="BackgroundImageFix"/>
<feGaussianBlur in="BackgroundImageFix" stdDeviation="4"/>
<feComposite in2="SourceAlpha" operator="in" result="effect1_backgroundBlur_100_11356"/>
<feBlend mode="normal" in="SourceGraphic" in2="effect1_backgroundBlur_100_11356" result="shape"/>
</filter>
</defs>
</svg>
