<svg width="84" height="12" fill="none" xmlns="https://www.w3.org/2000/svg"><g clip-path="url(#a)"><mask id="b" style="mask-type:luminance" maskUnits="userSpaceOnUse" x="0" y="0" width="84" height="12"><path d="M83.92 0H0v11.53h83.92V0z" fill="#fff"/></mask><g mask="url(#b)" fill="#000"><path d="M32.23 1.626v3.152h-3.579V1.626H26.68V9.9h1.971V6.573h3.58V9.9h1.971V1.626h-1.971zM41.435 1.626l-2.063 3.276-2.06-3.276h-2.328l3.405 5.408V9.9h1.969V7.034l3.404-5.408h-2.327zM50.106 1.626v6.062a.407.407 0 0 1-.42.414h-3.16V1.626h-1.971v8.28h5.826a1.574 1.574 0 0 0 1.601-1.021c.079-.213.11-.441.093-.668V1.626h-1.97zM59.728 1.627h-5.83v8.28h1.972V3.419h3.165a.412.412 0 0 1 .418.414V9.9h1.968V3.32a1.682 1.682 0 0 0-.453-1.236 1.688 1.688 0 0 0-1.24-.458zM69.08 1.627h-5.83v8.28h5.83a1.574 1.574 0 0 0 1.678-1.695v-4.89a1.671 1.671 0 0 0-.444-1.252 1.678 1.678 0 0 0-1.235-.443zM68.8 3.844V7.69a.415.415 0 0 1-.411.42h-3.171v-4.69h3.15a.411.411 0 0 1 .432.425zM74.212 1.627a1.674 1.674 0 0 0-1.238.458 1.666 1.666 0 0 0-.456 1.237V9.9h1.966V7.343h3.582v2.558h1.969V1.627h-5.823zM78.06 3.42v2.132h-3.582V3.845a.415.415 0 0 1 .124-.304.42.42 0 0 1 .305-.122h3.153zM83.925 1.626h-1.972V9.9h1.972V1.626zM11.27 11.533c6.218 0 11.269-2.582 11.269-5.767C22.539 2.582 17.494 0 11.27 0 5.048 0 0 2.582 0 5.763c0 3.182 5.033 5.77 11.27 5.77zm2.12-2.83c-.186.431-.508 1.351-1.252 1.732a1.863 1.863 0 0 1-.752.172h-.112a19.582 19.582 0 0 1-5.625-.78l-.065-.024c-.148-.05-.225-.119-.225-.204a.257.257 0 0 1 .091-.184l.104-.088c.367-.314 1.49-1.13 3.624-1.934.864-.351 1.755-.633 2.664-.843.548-.127 2.665-.453 1.549 2.15v.003zm5.697-5.814a.226.226 0 0 1 .19-.133.373.373 0 0 1 .233.077c1.324.813 2.108 1.827 2.108 2.927 0 1.99-2.558 3.697-6.217 4.436-.234.047-.39.044-.444 0-.053-.044-.048-.1 0-.177a.823.823 0 0 1 .098-.136c1.992-2.345 3.508-5.805 3.94-6.802a1.5 1.5 0 0 1 .092-.192zm-9.91-.074c.187-.435.51-1.363 1.253-1.733a1.85 1.85 0 0 1 .752-.171h.113c1.903-.014 3.797.249 5.625.78l.059.024c.15.05.228.118.228.204a.246.246 0 0 1-.092.18l-.103.092c-.353.314-1.48 1.127-3.604 1.949-.864.352-1.755.635-2.664.846-.56.109-2.682.431-1.566-2.17zM7.139 1.32c.237-.044.39-.044.447 0a.154.154 0 0 1 0 .177c-.03.048-.064.093-.1.136-1.993 2.36-3.509 5.823-3.932 6.822a2.485 2.485 0 0 1-.092.18.225.225 0 0 1-.19.137.394.394 0 0 1-.233-.077C1.714 7.88.93 6.864.93 5.764.92 3.775 3.479 2.07 7.138 1.318z"/></g></g><defs><clipPath id="a"><path fill="#fff" d="M0 0h83.921v11.53H0z"/></clipPath></defs></svg>