<svg width="274" height="36" viewBox="0 0 274 36" fill="none" xmlns="https://www.w3.org/2000/svg">
<g filter="url(#filter0_b_1559_329)">
<path fill-rule="evenodd" clip-rule="evenodd" d="M274 0H12.6462V11.2801L0 18.0001L12.6462 24.7201V36H274V0Z" fill="black" fill-opacity="0.66"/>
</g>
<g filter="url(#filter1_b_1559_329)">
<path fill-rule="evenodd" clip-rule="evenodd" d="M13.6462 11.8811L2.13106 18.0001L13.6462 24.119V35H273V1H13.6462V11.8811ZM0 18.0001L12.6462 11.2801V0H274V36H12.6462V24.7201L0 18.0001Z" fill="#7B7B7B"/>
</g>
<path d="M28.602 20.138C29.0687 19.9607 29.512 19.7507 29.932 19.508C30.352 19.256 30.73 18.99 31.066 18.71C31.4113 18.4207 31.7053 18.1127 31.948 17.786C32.2 17.4593 32.396 17.1233 32.536 16.778C32.368 16.8713 32.1487 16.946 31.878 17.002C31.6167 17.0487 31.346 17.072 31.066 17.072H28.84V15.826H32.956C33.0027 15.6207 33.04 15.4153 33.068 15.21C33.096 15.0047 33.11 14.8087 33.11 14.622V14.216H28.966V12.956H34.692V14.104C34.692 15.812 34.2253 17.2633 33.292 18.458C32.3587 19.6433 31.0193 20.6047 29.274 21.342L28.602 20.138ZM36.554 23.806V11.514H38.066V16.12H39.788V17.352H38.066V23.806H36.554ZM43.5869 19.382C43.9509 19.382 44.3009 19.3633 44.6369 19.326C44.9823 19.2793 45.2903 19.214 45.5609 19.13L45.8129 20.166C45.4116 20.3527 44.9449 20.4787 44.4129 20.544C43.8903 20.6 43.3909 20.628 42.9149 20.628H41.0949C40.6843 20.628 40.4789 20.4647 40.4789 20.138V12.984H45.1689V14.216H41.9209V16.134H44.2169V17.352H41.9209V19.382H43.5869ZM44.9449 16.134H46.5269V11.724H47.9549V23.456H46.5269V17.352H44.9449V16.134ZM49.0469 23.806V11.514H50.5029V23.806H49.0469ZM51.7538 21.076H55.6178V17.198H57.1298V21.076H62.7858V22.322H51.7538V21.076ZM59.3698 19.06C59.4818 18.416 59.5658 17.73 59.6218 17.002C59.6778 16.2647 59.7058 15.5693 59.7058 14.916V13.502H53.3218V12.27H61.2318V14.468C61.2318 15.2893 61.1992 16.106 61.1338 16.918C61.0685 17.7207 60.9612 18.5 60.8118 19.256L59.3698 19.06ZM68.1808 19.466C69.2261 19.466 70.1408 19.3447 70.9248 19.102L71.2048 20.11C70.9528 20.2313 70.6681 20.3293 70.3508 20.404C70.0334 20.4787 69.7021 20.5393 69.3568 20.586C69.0208 20.6233 68.6708 20.6513 68.3068 20.67C67.9521 20.6887 67.6068 20.698 67.2708 20.698H64.7088C64.2981 20.698 64.0928 20.5347 64.0928 20.208V16.148H68.5308V14.076H64.0928V12.858H70.0568V17.338H65.6048V19.466H68.1808ZM71.8208 23.806V11.514H73.3188V23.806H71.8208ZM84.2672 12.998H86.2552V11.514H87.7672V17.87H86.2552V16.456H84.2672V17.408H78.8072C78.3872 17.408 78.1772 17.24 78.1772 16.904V12.046H79.6892V13.628H82.7692V12.046H84.2672V12.998ZM79.7872 20.53H86.2692V19.522H79.7872V18.36H87.7672V21.65H81.2852V22.672H88.0472V23.82H80.3892C79.9879 23.82 79.7872 23.652 79.7872 23.316V20.53ZM79.6892 16.246H82.7692V14.804H79.6892V16.246ZM84.2672 14.132V15.336H86.2552V14.132H84.2672ZM95.6261 19.326V21.174H100.344V22.378H89.3121V21.174H94.1141V19.326H91.4961C91.0948 19.326 90.8941 19.1627 90.8941 18.836V15.168H97.2641V13.404H90.8941V12.2H98.7761V16.344H92.3921V18.164H99.0001V19.326H95.6261ZM103.621 17.254H108.381V16.246C107.317 16.1713 106.509 15.9287 105.959 15.518C105.408 15.1073 105.133 14.5707 105.133 13.908C105.133 13.152 105.473 12.5733 106.155 12.172C106.836 11.7707 107.83 11.57 109.137 11.57C110.453 11.57 111.451 11.7707 112.133 12.172C112.823 12.5733 113.169 13.152 113.169 13.908C113.169 14.5707 112.889 15.1073 112.329 15.518C111.778 15.9287 110.966 16.1713 109.893 16.246V17.254H114.653V18.472H103.621V17.254ZM105.763 23.82C105.361 23.82 105.161 23.6473 105.161 23.302V19.2H106.673V20.404H111.601V19.2H113.127V23.82H105.763ZM106.645 13.908C106.645 14.2813 106.841 14.5707 107.233 14.776C107.625 14.9813 108.259 15.084 109.137 15.084C110.023 15.084 110.663 14.9813 111.055 14.776C111.456 14.5707 111.657 14.2813 111.657 13.908C111.657 13.5533 111.456 13.2733 111.055 13.068C110.663 12.8627 110.023 12.76 109.137 12.76C108.259 12.76 107.625 12.8627 107.233 13.068C106.841 13.2733 106.645 13.5533 106.645 13.908ZM106.673 22.63H111.601V21.566H106.673V22.63ZM121.517 12.928H123.715V11.5H125.227V20.264H123.715V16.344H121.517V15.238H123.715V14.048H121.517V12.928ZM121.503 18.528C120.887 18.2013 120.341 17.8187 119.865 17.38C119.389 16.9413 119.03 16.456 118.787 15.924C118.311 17.0907 117.341 18.0567 115.875 18.822L115.133 17.758C116.067 17.2913 116.767 16.7267 117.233 16.064C117.7 15.392 117.933 14.5567 117.933 13.558V11.92H119.459V13.25C119.459 14.2487 119.688 15.084 120.145 15.756C120.612 16.428 121.312 16.9927 122.245 17.45L121.503 18.528ZM117.919 23.372C117.733 23.372 117.583 23.33 117.471 23.246C117.359 23.1713 117.303 23.0407 117.303 22.854V19.214H118.829V22.126H125.535V23.372H117.919ZM128.354 13.768C128.354 13.1053 128.686 12.5687 129.348 12.158C130.02 11.7473 131.028 11.542 132.372 11.542C133.726 11.542 134.734 11.752 135.396 12.172C136.068 12.5827 136.404 13.1147 136.404 13.768C136.404 14.4587 136.073 15.0047 135.41 15.406C134.748 15.8073 133.735 16.008 132.372 16.008C131.028 16.008 130.02 15.8073 129.348 15.406C128.686 15.0047 128.354 14.4587 128.354 13.768ZM129.894 13.768C129.894 14.1133 130.095 14.3887 130.496 14.594C130.898 14.79 131.528 14.888 132.386 14.888C133.236 14.888 133.861 14.79 134.262 14.594C134.673 14.3887 134.878 14.1133 134.878 13.768C134.878 13.4413 134.673 13.1753 134.262 12.97C133.861 12.7553 133.236 12.648 132.386 12.648C131.528 12.648 130.898 12.7553 130.496 12.97C130.095 13.1753 129.894 13.4413 129.894 13.768ZM126.87 16.792H137.888V17.898H126.87V16.792ZM128.396 20.796H134.878V19.9H128.396V18.822H136.348V21.846H129.866V22.756H136.768V23.82H129.012C128.602 23.82 128.396 23.652 128.396 23.316V20.796ZM148.599 17.436C148.692 17.1747 148.772 16.89 148.837 16.582C148.902 16.2647 148.954 15.952 148.991 15.644C149.038 15.336 149.07 15.0373 149.089 14.748C149.108 14.4587 149.117 14.202 149.117 13.978V13.348H142.733V12.116H150.643V13.642C150.643 13.9127 150.629 14.2113 150.601 14.538C150.573 14.8647 150.536 15.196 150.489 15.532C150.442 15.868 150.382 16.1993 150.307 16.526C150.242 16.8527 150.167 17.156 150.083 17.436H152.197V18.668H147.451V23.806H145.939V18.668H141.179V17.436H148.599ZM155.072 16.624C154.67 16.624 154.47 16.4467 154.47 16.092V11.738H155.982V13.068H160.672V11.738H162.184V16.624H155.072ZM157.704 21.216V18.976H152.804V17.73H163.836V18.976H159.216V21.216H157.704ZM154.904 23.624C154.493 23.624 154.288 23.4607 154.288 23.134V19.83H155.8V22.378H162.562V23.624H154.904ZM155.982 15.448H160.672V14.23H155.982V15.448ZM170.953 18.934C170.953 19.6993 170.687 20.3107 170.155 20.768C169.623 21.2253 168.862 21.454 167.873 21.454C166.893 21.454 166.137 21.2253 165.605 20.768C165.073 20.3013 164.807 19.69 164.807 18.934C164.807 18.1687 165.077 17.5573 165.619 17.1C166.16 16.6427 166.911 16.414 167.873 16.414C168.862 16.414 169.623 16.6427 170.155 17.1C170.687 17.5573 170.953 18.1687 170.953 18.934ZM172.479 23.82V11.5H173.991V16.204H175.713V17.45H173.991V23.82H172.479ZM169.469 18.934C169.469 18.542 169.324 18.2247 169.035 17.982C168.745 17.7393 168.358 17.618 167.873 17.618C167.378 17.618 166.991 17.7393 166.711 17.982C166.44 18.2247 166.305 18.542 166.305 18.934C166.305 19.354 166.445 19.6807 166.725 19.914C167.014 20.138 167.397 20.25 167.873 20.25C168.358 20.25 168.745 20.1333 169.035 19.9C169.324 19.6667 169.469 19.3447 169.469 18.934ZM164.345 14.37H171.415V15.574H164.345V14.37ZM165.899 12.102H169.903V13.306H165.899V12.102ZM181.934 13.6C182.027 13.712 182.111 13.8287 182.186 13.95C182.27 14.0713 182.344 14.2067 182.41 14.356H184.622V11.5H186.134V23.82H184.622V19.284H182.382C182.316 19.4147 182.246 19.536 182.172 19.648C182.097 19.76 182.018 19.8673 181.934 19.97C181.654 20.2967 181.318 20.5393 180.926 20.698C180.534 20.8473 180.114 20.922 179.666 20.922C179.208 20.922 178.788 20.852 178.406 20.712C178.032 20.5627 177.696 20.32 177.398 19.984C177.108 19.6573 176.884 19.2327 176.726 18.71C176.567 18.1873 176.488 17.548 176.488 16.792C176.488 16.0547 176.567 15.4247 176.726 14.902C176.884 14.37 177.108 13.936 177.398 13.6C177.678 13.264 178.009 13.0167 178.392 12.858C178.784 12.6993 179.208 12.62 179.666 12.62C180.114 12.62 180.534 12.6993 180.926 12.858C181.318 13.0167 181.654 13.264 181.934 13.6ZM181.374 16.764C181.374 16.204 181.322 15.742 181.22 15.378C181.117 15.0047 180.991 14.7013 180.842 14.468C180.683 14.2253 180.496 14.062 180.282 13.978C180.076 13.8847 179.876 13.838 179.68 13.838C179.465 13.838 179.255 13.894 179.05 14.006C178.844 14.1087 178.662 14.272 178.504 14.496C178.326 14.7293 178.191 15.0327 178.098 15.406C178.004 15.77 177.962 16.2227 177.972 16.764C177.972 17.324 178.018 17.7953 178.112 18.178C178.214 18.5607 178.345 18.864 178.504 19.088C178.653 19.3027 178.83 19.4567 179.036 19.55C179.25 19.6433 179.465 19.69 179.68 19.69C179.876 19.69 180.072 19.648 180.268 19.564C180.473 19.48 180.664 19.3167 180.842 19.074C180.991 18.8593 181.117 18.5607 181.22 18.178C181.322 17.7953 181.374 17.324 181.374 16.764ZM182.872 16.792C182.872 17.2493 182.834 17.6787 182.76 18.08H184.622V15.574H182.774C182.811 15.7607 182.834 15.9567 182.844 16.162C182.862 16.358 182.872 16.568 182.872 16.792ZM196.634 15.966V16.932H201.394V18.038H190.362V16.932H195.122V15.966H192.63C192.229 15.966 192.028 15.7933 192.028 15.448V11.654H193.54V12.76H198.23V11.654H199.742V15.966H196.634ZM191.902 20.824H198.384V19.956H191.902V18.878H199.854V21.86H193.372V22.728H200.26V23.82H192.504C192.103 23.82 191.902 23.652 191.902 23.316V20.824ZM193.54 14.86H198.23V13.866H193.54V14.86ZM209.43 23.82V19.858H204.67V18.612H215.702V19.858H210.942V23.82H209.43ZM214.61 17.352C214.162 17.2587 213.714 17.1327 213.266 16.974C212.818 16.8153 212.38 16.6147 211.95 16.372C211.092 15.8867 210.499 15.392 210.172 14.888C209.762 15.448 209.146 15.952 208.324 16.4C207.914 16.6333 207.48 16.8293 207.022 16.988C206.574 17.1373 206.131 17.2587 205.692 17.352L205.286 16.134C206.322 15.938 207.256 15.5553 208.086 14.986C208.506 14.6873 208.828 14.3467 209.052 13.964C209.286 13.572 209.402 13.1333 209.402 12.648V11.976H210.956V12.648C210.956 13.5907 211.39 14.3747 212.258 15C212.678 15.2987 213.122 15.546 213.588 15.742C214.064 15.938 214.54 16.078 215.016 16.162L214.61 17.352ZM219.161 14.888C219.161 14.4587 219.24 14.062 219.399 13.698C219.558 13.334 219.782 13.0213 220.071 12.76C220.36 12.4893 220.71 12.2793 221.121 12.13C221.532 11.9713 221.989 11.892 222.493 11.892C223.006 11.892 223.464 11.9713 223.865 12.13C224.276 12.2793 224.626 12.4893 224.915 12.76C225.204 13.0213 225.424 13.334 225.573 13.698C225.732 14.062 225.811 14.4587 225.811 14.888C225.811 15.308 225.732 15.7047 225.573 16.078C225.424 16.442 225.204 16.7593 224.915 17.03C224.635 17.2913 224.29 17.5013 223.879 17.66C223.468 17.8093 223.006 17.884 222.493 17.884C221.989 17.884 221.532 17.8093 221.121 17.66C220.71 17.5013 220.36 17.2913 220.071 17.03C219.782 16.7593 219.558 16.442 219.399 16.078C219.24 15.714 219.161 15.3173 219.161 14.888ZM220.673 14.888C220.673 15.1587 220.72 15.4013 220.813 15.616C220.906 15.8307 221.032 16.0173 221.191 16.176C221.35 16.3347 221.541 16.456 221.765 16.54C221.989 16.624 222.227 16.666 222.479 16.666C222.74 16.666 222.983 16.624 223.207 16.54C223.431 16.4467 223.622 16.3207 223.781 16.162C223.949 16.0033 224.075 15.8167 224.159 15.602C224.252 15.3873 224.299 15.1493 224.299 14.888C224.299 14.6267 224.252 14.3887 224.159 14.174C224.066 13.9593 223.94 13.7727 223.781 13.614C223.622 13.4553 223.431 13.334 223.207 13.25C222.983 13.1567 222.74 13.11 222.479 13.11C222.227 13.11 221.989 13.152 221.765 13.236C221.55 13.32 221.359 13.4413 221.191 13.6C221.032 13.7587 220.906 13.95 220.813 14.174C220.72 14.3887 220.673 14.6267 220.673 14.888ZM227.435 18.332V11.514H228.947V18.332H227.435ZM224.957 23.862C224.78 23.8153 224.584 23.7173 224.369 23.568C224.154 23.428 223.944 23.2647 223.739 23.078C223.534 22.8913 223.347 22.6953 223.179 22.49C223.011 22.2847 222.89 22.0933 222.815 21.916C222.74 22.084 222.624 22.266 222.465 22.462C222.306 22.658 222.129 22.8447 221.933 23.022C221.746 23.2087 221.55 23.372 221.345 23.512C221.149 23.6613 220.967 23.7687 220.799 23.834C220.659 23.6567 220.519 23.4747 220.379 23.288C220.248 23.1107 220.113 22.9287 219.973 22.742C220.272 22.602 220.547 22.4293 220.799 22.224C221.06 22.0187 221.28 21.79 221.457 21.538C221.644 21.286 221.788 21.02 221.891 20.74C221.994 20.46 222.045 20.18 222.045 19.9V18.906H223.557V19.858C223.557 20.1007 223.599 20.3527 223.683 20.614C223.767 20.8753 223.874 21.1227 224.005 21.356C224.136 21.58 224.285 21.7853 224.453 21.972C224.621 22.1587 224.789 22.2987 224.957 22.392C225.125 22.2987 225.293 22.154 225.461 21.958C225.629 21.7527 225.783 21.5333 225.923 21.3C226.063 21.0573 226.175 20.8147 226.259 20.572C226.343 20.32 226.385 20.1007 226.385 19.914V18.906H227.883V19.508C227.883 20.264 228.056 20.908 228.401 21.44C228.756 21.972 229.26 22.42 229.913 22.784L229.115 23.848C228.938 23.7547 228.751 23.6333 228.555 23.484C228.359 23.344 228.168 23.1853 227.981 23.008C227.794 22.8307 227.622 22.644 227.463 22.448C227.314 22.252 227.197 22.0607 227.113 21.874C227.01 22.0793 226.875 22.2893 226.707 22.504C226.539 22.7187 226.357 22.9147 226.161 23.092C225.965 23.2787 225.76 23.4373 225.545 23.568C225.34 23.708 225.144 23.806 224.957 23.862ZM236.484 13.6C236.727 13.8893 236.927 14.2393 237.086 14.65C237.245 15.0607 237.347 15.5507 237.394 16.12H239.172V11.5H240.684V23.82H239.172V17.366H237.408C237.361 17.9633 237.254 18.4767 237.086 18.906C236.927 19.3353 236.727 19.69 236.484 19.97C236.204 20.2967 235.868 20.5393 235.476 20.698C235.084 20.8473 234.664 20.922 234.216 20.922C233.759 20.922 233.339 20.852 232.956 20.712C232.583 20.5627 232.247 20.32 231.948 19.984C231.659 19.6573 231.435 19.2327 231.276 18.71C231.117 18.1873 231.038 17.548 231.038 16.792C231.038 16.0547 231.117 15.4247 231.276 14.902C231.435 14.37 231.659 13.936 231.948 13.6C232.228 13.264 232.559 13.0167 232.942 12.858C233.334 12.6993 233.759 12.62 234.216 12.62C234.664 12.62 235.084 12.6993 235.476 12.858C235.868 13.0167 236.204 13.264 236.484 13.6ZM235.924 16.764C235.924 16.204 235.873 15.742 235.77 15.378C235.667 15.0047 235.541 14.7013 235.392 14.468C235.233 14.2253 235.047 14.062 234.832 13.978C234.627 13.8847 234.426 13.838 234.23 13.838C234.015 13.838 233.805 13.894 233.6 14.006C233.395 14.1087 233.213 14.272 233.054 14.496C232.877 14.7293 232.741 15.0327 232.648 15.406C232.555 15.77 232.513 16.2227 232.522 16.764C232.522 17.324 232.569 17.7953 232.662 18.178C232.765 18.5607 232.895 18.864 233.054 19.088C233.203 19.3027 233.381 19.4567 233.586 19.55C233.801 19.6433 234.015 19.69 234.23 19.69C234.426 19.69 234.622 19.648 234.818 19.564C235.023 19.48 235.215 19.3167 235.392 19.074C235.541 18.8593 235.667 18.5607 235.77 18.178C235.873 17.7953 235.924 17.324 235.924 16.764ZM242.229 21.09H245.127V18.388C244.604 18.0987 244.203 17.716 243.923 17.24C243.652 16.7547 243.517 16.176 243.517 15.504C243.517 14.9627 243.619 14.4773 243.825 14.048C244.03 13.6093 244.315 13.2407 244.679 12.942C245.052 12.634 245.495 12.4007 246.009 12.242C246.522 12.074 247.091 11.99 247.717 11.99C248.351 11.99 248.925 12.074 249.439 12.242C249.961 12.41 250.405 12.648 250.769 12.956C251.142 13.2547 251.427 13.6233 251.623 14.062C251.828 14.4913 251.931 14.972 251.931 15.504C251.931 16.148 251.791 16.7127 251.511 17.198C251.24 17.674 250.857 18.0613 250.363 18.36V21.09H253.247V22.336H242.229V21.09ZM245.071 15.504C245.071 16.204 245.304 16.7547 245.771 17.156C246.237 17.548 246.891 17.744 247.731 17.744C248.561 17.744 249.215 17.548 249.691 17.156C250.167 16.7547 250.405 16.204 250.405 15.504C250.405 15.1867 250.344 14.8927 250.223 14.622C250.101 14.342 249.924 14.0993 249.691 13.894C249.457 13.6887 249.177 13.53 248.851 13.418C248.524 13.306 248.151 13.25 247.731 13.25C246.891 13.25 246.237 13.46 245.771 13.88C245.304 14.3 245.071 14.8413 245.071 15.504ZM247.801 18.99C247.39 18.99 247.003 18.962 246.639 18.906V21.09H248.851V18.906C248.515 18.962 248.165 18.99 247.801 18.99ZM254.82 18.78L254.4 12.48H256.262L255.842 18.78H254.82ZM254.358 20.096H256.304V22H254.358V20.096Z" fill="white"/>
<defs>
<filter id="filter0_b_1559_329" x="-8" y="-8" width="290" height="52" filterUnits="userSpaceOnUse" color-interpolation-filters="sRGB">
<feFlood flood-opacity="0" result="BackgroundImageFix"/>
<feGaussianBlur in="BackgroundImageFix" stdDeviation="4"/>
<feComposite in2="SourceAlpha" operator="in" result="effect1_backgroundBlur_1559_329"/>
<feBlend mode="normal" in="SourceGraphic" in2="effect1_backgroundBlur_1559_329" result="shape"/>
</filter>
<filter id="filter1_b_1559_329" x="-8" y="-8" width="290" height="52" filterUnits="userSpaceOnUse" color-interpolation-filters="sRGB">
<feFlood flood-opacity="0" result="BackgroundImageFix"/>
<feGaussianBlur in="BackgroundImageFix" stdDeviation="4"/>
<feComposite in2="SourceAlpha" operator="in" result="effect1_backgroundBlur_1559_329"/>
<feBlend mode="normal" in="SourceGraphic" in2="effect1_backgroundBlur_1559_329" result="shape"/>
</filter>
</defs>
</svg>
