<svg width="274" height="36" fill="none" xmlns="https://www.w3.org/2000/svg"><g filter="url(#a)"><path fill-rule="evenodd" clip-rule="evenodd" d="M274 0H12.646v11.28L0 18l12.646 6.72V36H274V0z" fill="#000" fill-opacity=".66"/></g><g filter="url(#b)"><path fill-rule="evenodd" clip-rule="evenodd" d="m13.646 11.881-11.515 6.12 11.515 6.118V35H273V1H13.646v10.881zM0 18.001l12.646-6.72V0H274v36H12.646V24.72L0 18z" fill="#7B7B7B"/></g><path d="M28.602 20.138c.467-.177.91-.387 1.33-.63.42-.252.798-.518 1.134-.798.345-.29.64-.597.882-.924.252-.327.448-.663.588-1.008a2.347 2.347 0 0 1-.658.224c-.261.047-.532.07-.812.07H28.84v-1.246h4.116c.047-.205.084-.41.112-.616.028-.205.042-.401.042-.588v-.406h-4.144v-1.26h5.726v1.148c0 1.708-.467 3.16-1.4 4.354-.933 1.185-2.273 2.147-4.018 2.884l-.672-1.204zm7.952 3.668V11.514h1.512v4.606h1.722v1.232h-1.722v6.454h-1.512zm7.033-4.424c.364 0 .714-.019 1.05-.056.345-.047.653-.112.924-.196l.252 1.036a4.651 4.651 0 0 1-1.4.378c-.523.056-1.022.084-1.498.084h-1.82c-.41 0-.616-.163-.616-.49v-7.154h4.69v1.232H41.92v1.918h2.296v1.218H41.92v2.03h1.666zm1.358-3.248h1.582v-4.41h1.428v11.732h-1.428v-6.104h-1.582v-1.218zm4.102 7.672V11.514h1.456v12.292h-1.456zm2.707-2.73h3.864v-3.878h1.512v3.878h5.656v1.246H51.754v-1.246zm7.616-2.016c.112-.644.196-1.33.252-2.058.056-.737.084-1.433.084-2.086v-1.414h-6.384V12.27h7.91v2.198c0 .821-.033 1.638-.098 2.45a20.716 20.716 0 0 1-.322 2.338l-1.442-.196zm8.81.406c1.046 0 1.96-.121 2.745-.364l.28 1.008c-.252.121-.537.22-.854.294-.318.075-.649.135-.994.182a19.684 19.684 0 0 1-2.086.112h-2.562c-.41 0-.616-.163-.616-.49v-4.06h4.438v-2.072h-4.438v-1.218h5.964v4.48h-4.452v2.128h2.576zm3.64 4.34V11.514h1.499v12.292H71.82zm12.447-10.808h1.988v-1.484h1.512v6.356h-1.512v-1.414h-1.988v.952h-5.46c-.42 0-.63-.168-.63-.504v-4.858h1.512v1.582h3.08v-1.582h1.498v.952zm-4.48 7.532h6.482v-1.008h-6.482V18.36h7.98v3.29h-6.482v1.022h6.762v1.148H80.39c-.401 0-.602-.168-.602-.504V20.53zm-.098-4.284h3.08v-1.442h-3.08v1.442zm4.578-2.114v1.204h1.988v-1.204h-1.988zm11.36 5.194v1.848h4.717v1.204H89.312v-1.204h4.802v-1.848h-2.618c-.401 0-.602-.163-.602-.49v-3.668h6.37v-1.764h-6.37V12.2h7.882v4.144h-6.384v1.82H99v1.162h-3.374zm7.994-2.072h4.76v-1.008c-1.064-.075-1.872-.317-2.422-.728-.551-.41-.826-.947-.826-1.61 0-.756.34-1.335 1.022-1.736.681-.401 1.675-.602 2.982-.602 1.316 0 2.314.2 2.996.602.69.401 1.036.98 1.036 1.736 0 .663-.28 1.2-.84 1.61-.551.41-1.363.653-2.436.728v1.008h4.76v1.218h-11.032v-1.218zm2.142 6.566c-.402 0-.602-.173-.602-.518V19.2h1.512v1.204h4.928V19.2h1.526v4.62h-7.364zm.882-9.912c0 .373.196.663.588.868.392.205 1.026.308 1.904.308.886 0 1.526-.103 1.918-.308.401-.205.602-.495.602-.868 0-.355-.201-.635-.602-.84-.392-.205-1.032-.308-1.918-.308-.878 0-1.512.103-1.904.308-.392.205-.588.485-.588.84zm.028 8.722h4.928v-1.064h-4.928v1.064zm14.844-9.702h2.198V11.5h1.512v8.764h-1.512v-3.92h-2.198v-1.106h2.198v-1.19h-2.198v-1.12zm-.014 5.6a7.78 7.78 0 0 1-1.638-1.148 4.549 4.549 0 0 1-1.078-1.456c-.476 1.167-1.446 2.133-2.912 2.898l-.742-1.064c.934-.467 1.634-1.031 2.1-1.694.467-.672.7-1.507.7-2.506V11.92h1.526v1.33c0 .999.229 1.834.686 2.506.467.672 1.167 1.237 2.1 1.694l-.742 1.078zm-3.584 4.844a.73.73 0 0 1-.448-.126c-.112-.075-.168-.205-.168-.392v-3.64h1.526v2.912h6.706v1.246h-7.616zm10.435-9.604c0-.663.332-1.2.994-1.61.672-.41 1.68-.616 3.024-.616 1.354 0 2.362.21 3.024.63.672.41 1.008.943 1.008 1.596 0 .69-.331 1.237-.994 1.638-.662.401-1.675.602-3.038.602-1.344 0-2.352-.2-3.024-.602-.662-.401-.994-.947-.994-1.638zm1.54 0c0 .345.201.62.602.826.402.196 1.032.294 1.89.294.85 0 1.475-.098 1.876-.294.411-.205.616-.48.616-.826 0-.327-.205-.593-.616-.798-.401-.215-1.026-.322-1.876-.322-.858 0-1.488.107-1.89.322-.401.205-.602.471-.602.798zm-3.024 3.024h11.018v1.106H126.87v-1.106zm1.526 4.004h6.482V19.9h-6.482v-1.078h7.952v3.024h-6.482v.91h6.902v1.064h-7.756c-.41 0-.616-.168-.616-.504v-2.52zm20.203-3.36c.093-.261.173-.546.238-.854.065-.317.117-.63.154-.938a11.865 11.865 0 0 0 .126-1.666v-.63h-6.384v-1.232h7.91v1.526c0 .27-.014.57-.042.896-.028.327-.065.658-.112.994-.047.336-.107.667-.182.994-.065.327-.14.63-.224.91h2.114v1.232h-4.746v5.138h-1.512v-5.138h-4.76v-1.232h7.42zm6.473-.812c-.402 0-.602-.177-.602-.532v-4.354h1.512v1.33h4.69v-1.33h1.512v4.886h-7.112zm2.632 4.592v-2.24h-4.9V17.73h11.032v1.246h-4.62v2.24h-1.512zm-2.8 2.408c-.411 0-.616-.163-.616-.49V19.83h1.512v2.548h6.762v1.246h-7.658zm1.078-8.176h4.69V14.23h-4.69v1.218zm14.971 3.486c0 .765-.266 1.377-.798 1.834-.532.457-1.293.686-2.282.686-.98 0-1.736-.229-2.268-.686-.532-.467-.798-1.078-.798-1.834 0-.765.27-1.377.812-1.834.541-.457 1.292-.686 2.254-.686.989 0 1.75.229 2.282.686.532.457.798 1.069.798 1.834zm1.526 4.886V11.5h1.512v4.704h1.722v1.246h-1.722v6.37h-1.512zm-3.01-4.886c0-.392-.145-.71-.434-.952-.29-.243-.677-.364-1.162-.364-.495 0-.882.121-1.162.364-.271.243-.406.56-.406.952 0 .42.14.747.42.98.289.224.672.336 1.148.336.485 0 .872-.117 1.162-.35.289-.233.434-.555.434-.966zm-5.124-4.564h7.07v1.204h-7.07V14.37zm1.554-2.268h4.004v1.204h-4.004v-1.204zm16.035 1.498c.093.112.177.229.252.35.084.121.158.257.224.406h2.212V11.5h1.512v12.32h-1.512v-4.536h-2.24a3.618 3.618 0 0 1-.448.686c-.28.327-.616.57-1.008.728a3.51 3.51 0 0 1-1.26.224c-.458 0-.878-.07-1.26-.21a2.666 2.666 0 0 1-1.008-.728c-.29-.327-.514-.751-.672-1.274-.159-.523-.238-1.162-.238-1.918 0-.737.079-1.367.238-1.89.158-.532.382-.966.672-1.302.28-.336.611-.583.994-.742a3.36 3.36 0 0 1 1.274-.238c.448 0 .868.08 1.26.238.392.159.728.406 1.008.742zm-.56 3.164c0-.56-.052-1.022-.154-1.386a3.359 3.359 0 0 0-.378-.91c-.159-.243-.346-.406-.56-.49a1.452 1.452 0 0 0-.602-.14 1.3 1.3 0 0 0-.63.168 1.486 1.486 0 0 0-.546.49c-.178.233-.313.537-.406.91-.094.364-.136.817-.126 1.358 0 .56.046 1.031.14 1.414.102.383.233.686.392.91.149.215.326.369.532.462a1.482 1.482 0 0 0 1.232.014c.205-.084.396-.247.574-.49.149-.215.275-.513.378-.896.102-.383.154-.854.154-1.414zm1.498.028a7.1 7.1 0 0 1-.112 1.288h1.862v-2.506h-1.848c.037.187.06.383.07.588.018.196.028.406.028.63zm13.762-.826v.966h4.76v1.106h-11.032v-1.106h4.76v-.966h-2.492c-.401 0-.602-.173-.602-.518v-3.794h1.512v1.106h4.69v-1.106h1.512v4.312h-3.108zm-4.732 4.858h6.482v-.868h-6.482v-1.078h7.952v2.982h-6.482v.868h6.888v1.092h-7.756c-.401 0-.602-.168-.602-.504v-2.492zm1.638-5.964h4.69v-.994h-4.69v.994zm15.89 8.96v-3.962h-4.76v-1.246h11.032v1.246h-4.76v3.962h-1.512zm5.18-6.468c-.448-.093-.896-.22-1.344-.378a8.338 8.338 0 0 1-1.316-.602c-.858-.485-1.451-.98-1.778-1.484-.41.56-1.026 1.064-1.848 1.512a7.77 7.77 0 0 1-1.302.588c-.448.15-.891.27-1.33.364l-.406-1.218a7.286 7.286 0 0 0 2.8-1.148c.42-.299.742-.64.966-1.022.234-.392.35-.83.35-1.316v-.672h1.554v.672c0 .943.434 1.727 1.302 2.352.42.299.864.546 1.33.742.476.196.952.336 1.428.42l-.406 1.19zm4.551-2.464c0-.43.079-.826.238-1.19.159-.364.383-.677.672-.938.289-.27.639-.48 1.05-.63a3.78 3.78 0 0 1 1.372-.238c.513 0 .971.08 1.372.238.411.15.761.36 1.05.63.289.261.509.574.658.938.159.364.238.76.238 1.19 0 .42-.079.817-.238 1.19a2.685 2.685 0 0 1-.658.952c-.28.261-.625.471-1.036.63-.411.15-.873.224-1.386.224-.504 0-.961-.075-1.372-.224a3.34 3.34 0 0 1-1.05-.63 2.859 2.859 0 0 1-.91-2.142zm1.512 0c0 .27.047.513.14.728.093.215.219.401.378.56.159.159.35.28.574.364.224.084.462.126.714.126.261 0 .504-.042.728-.126.224-.093.415-.22.574-.378.168-.159.294-.345.378-.56.093-.215.14-.453.14-.714a1.778 1.778 0 0 0-.518-1.274 1.591 1.591 0 0 0-.574-.364 1.876 1.876 0 0 0-.728-.14c-.252 0-.49.042-.714.126a1.761 1.761 0 0 0-.574.364c-.159.159-.285.35-.378.574-.093.215-.14.453-.14.714zm6.762 3.444v-6.818h1.512v6.818h-1.512zm-2.478 5.53a1.925 1.925 0 0 1-.588-.294 4.944 4.944 0 0 1-.63-.49 5.554 5.554 0 0 1-.56-.588 2.42 2.42 0 0 1-.364-.574c-.075.168-.191.35-.35.546a5.016 5.016 0 0 1-.532.56c-.187.187-.383.35-.588.49a2.3 2.3 0 0 1-.546.322c-.14-.177-.28-.36-.42-.546-.131-.177-.266-.36-.406-.546.299-.14.574-.313.826-.518.261-.205.481-.434.658-.686.187-.252.331-.518.434-.798.103-.28.154-.56.154-.84v-.994h1.512v.952c0 .243.042.495.126.756.084.261.191.509.322.742.131.224.28.43.448.616.168.187.336.327.504.42.168-.093.336-.238.504-.434.168-.205.322-.425.462-.658.14-.243.252-.485.336-.728.084-.252.126-.471.126-.658v-1.008h1.498v.602c0 .756.173 1.4.518 1.932.355.532.859.98 1.512 1.344l-.798 1.064a4.059 4.059 0 0 1-.56-.364 5.84 5.84 0 0 1-1.092-1.036 2.977 2.977 0 0 1-.35-.574 3.782 3.782 0 0 1-.406.63c-.168.215-.35.41-.546.588a3.621 3.621 0 0 1-.616.476c-.205.14-.401.238-.588.294zM236.484 13.6c.243.29.443.64.602 1.05.159.41.261.9.308 1.47h1.778V11.5h1.512v12.32h-1.512v-6.454h-1.764c-.047.597-.154 1.11-.322 1.54-.159.43-.359.784-.602 1.064-.28.327-.616.57-1.008.728a3.51 3.51 0 0 1-1.26.224c-.457 0-.877-.07-1.26-.21a2.681 2.681 0 0 1-1.008-.728c-.289-.327-.513-.751-.672-1.274-.159-.523-.238-1.162-.238-1.918 0-.737.079-1.367.238-1.89.159-.532.383-.966.672-1.302.28-.336.611-.583.994-.742a3.364 3.364 0 0 1 1.274-.238c.448 0 .868.08 1.26.238.392.159.728.406 1.008.742zm-.56 3.164c0-.56-.051-1.022-.154-1.386a3.359 3.359 0 0 0-.378-.91c-.159-.243-.345-.406-.56-.49a1.448 1.448 0 0 0-.602-.14 1.3 1.3 0 0 0-.63.168 1.502 1.502 0 0 0-.546.49c-.177.233-.313.537-.406.91-.093.364-.135.817-.126 1.358 0 .56.047 1.031.14 1.414.103.383.233.686.392.91.149.215.327.369.532.462a1.482 1.482 0 0 0 1.232.014c.205-.084.397-.247.574-.49.149-.215.275-.513.378-.896.103-.383.154-.854.154-1.414zm6.305 4.326h2.898v-2.702a3.102 3.102 0 0 1-1.204-1.148c-.271-.485-.406-1.064-.406-1.736 0-.541.102-1.027.308-1.456.205-.439.49-.807.854-1.106a3.841 3.841 0 0 1 1.33-.7 5.465 5.465 0 0 1 1.708-.252c.634 0 1.208.084 1.722.252.522.168.966.406 1.33.714.373.299.658.667.854 1.106.205.43.308.91.308 1.442 0 .644-.14 1.209-.42 1.694a3.192 3.192 0 0 1-1.148 1.162v2.73h2.884v1.246h-11.018V21.09zm2.842-5.586c0 .7.233 1.25.7 1.652.466.392 1.12.588 1.96.588.83 0 1.484-.196 1.96-.588.476-.401.714-.952.714-1.652a2.137 2.137 0 0 0-.714-1.61 2.478 2.478 0 0 0-.84-.476 3.447 3.447 0 0 0-1.12-.168c-.84 0-1.494.21-1.96.63-.467.42-.7.961-.7 1.624zm2.73 3.486c-.411 0-.798-.028-1.162-.084v2.184h2.212v-2.184a6.38 6.38 0 0 1-1.05.084zm7.019-.21-.42-6.3h1.862l-.42 6.3h-1.022zm-.462 1.316h1.946V22h-1.946v-1.904z" fill="#fff"/><defs><filter id="a" x="-8" y="-8" width="290" height="52" filterUnits="userSpaceOnUse" color-interpolation-filters="sRGB"><feFlood flood-opacity="0" result="BackgroundImageFix"/><feGaussianBlur in="BackgroundImageFix" stdDeviation="4"/><feComposite in2="SourceAlpha" operator="in" result="effect1_backgroundBlur_1559_329"/><feBlend in="SourceGraphic" in2="effect1_backgroundBlur_1559_329" result="shape"/></filter><filter id="b" x="-8" y="-8" width="290" height="52" filterUnits="userSpaceOnUse" color-interpolation-filters="sRGB"><feFlood flood-opacity="0" result="BackgroundImageFix"/><feGaussianBlur in="BackgroundImageFix" stdDeviation="4"/><feComposite in2="SourceAlpha" operator="in" result="effect1_backgroundBlur_1559_329"/><feBlend in="SourceGraphic" in2="effect1_backgroundBlur_1559_329" result="shape"/></filter></defs></svg>